# xmcd CD database file
#
# Track frame offsets:
#	150
#	16620
#	31005
#	52506
#	70446
#	83370
#	97217
#	117260
#	133315
#	146194
#	165518
#
# Disc length: 2380 seconds
#
# Revision: 1
# Processed by: cddbd v1.5.1PL2 Copyright (c) Steve Scherf et al.
# Submitted via: CDex 1.40Beta9
#
DISCID=87094a0b
DTITLE=Rancho Deluxe - Rancho Deluxe
DYEAR=2006
DGENRE=Country
TTITLE0=Rock Bottom
TTITLE1=Fall From Grace
TTITLE2=Follow Your Heart
TTITLE3=Hometown Blues
TTITLE4=On The Fence
TTITLE5=Steppin' Off The Line
TTITLE6=Lonesome Home Security
TTITLE7=I Bought A Bottle
TTITLE8=Hey You
TTITLE9=Tonight I'll Be Staying There With You
TTITLE10=Small Town Gossip
EXTD=YEAR: 2006 ID3G: 2
EXTT0=
EXTT1=
EXTT2=
EXTT3=
EXTT4=
EXTT5=
EXTT6=
EXTT7=
EXTT8=
EXTT9=
EXTT10=
PLAYORDER=
